<svg xmlns="http://www.w3.org/2000/svg" viewBox="0 0 1391.75 242.63"><defs><style>.cls-1{fill:#fff;}</style></defs><g id="Capa_2" data-name="Capa 2"><g id="Capa_1-2" data-name="Capa 1"><rect class="cls-1" x="762.97" y="0.28" width="46.79" height="112.91"/><rect class="cls-1" x="996.93" y="0.28" width="135.69" height="32.75"/><polygon class="cls-1" points="1029.68 89.18 1029.68 65.79 1123.26 65.79 1123.26 42.39 996.92 42.39 996.92 65.79 996.92 112.58 1029.68 112.58 1132.62 112.58 1132.62 89.18 1029.68 89.18"/><rect class="cls-1" x="1115.9" y="130.33" width="135.69" height="32.75"/><polygon class="cls-1" points="1148.66 219.24 1148.66 195.84 1242.24 195.84 1242.24 172.44 1115.9 172.44 1115.9 195.84 1115.9 242.63 1148.66 242.63 1251.6 242.63 1251.6 219.24 1148.66 219.24"/><polygon class="cls-1" points="1261.08 0.28 1261.08 68.47 1186.64 0.28 1141.98 0.28 1141.98 112.58 1186.64 112.58 1186.64 41.94 1261.08 112.58 1305.75 112.58 1305.75 0.28 1261.08 0.28"/><polygon class="cls-1" points="760.31 242.63 807.1 242.63 832.84 169.39 850.44 169.39 870.27 242.63 924.69 242.63 863.25 130.33 817.86 130.33 760.31 242.63"/><polygon class="cls-1" points="1061.75 188.82 1061.75 242.39 1102.55 242.39 1102.55 129.79 1061.75 129.79 1022.78 198.18 1009.6 198.18 975.72 129.79 934.1 129.79 934.1 242.39 976.28 242.39 976.28 188.82 1005.21 230.93 1027.18 230.93 1061.75 188.82"/><polygon class="cls-1" points="917.64 42.7 917.64 50.19 906.38 50.19 906.38 65.16 945.78 65.16 945.78 90.12 861.34 90.12 861.34 30.23 985.19 30.23 985.19 0.28 844.45 0.28 844.45 22.74 819.12 22.74 819.12 92.61 847.98 92.61 847.98 112.58 985.4 112.58 985.4 42.7 917.64 42.7"/><polygon class="cls-1" points="1371.75 161.12 1391.75 131.28 1277.98 131.28 1255.75 152.59 1255.75 187.86 1275.75 203.74 1363.87 203.74 1363.75 212.27 1276.97 212.27 1259.75 242.1 1383.58 242.1 1391.75 226.62 1391.75 193.24 1371.75 172.28 1297.75 171.77 1297.75 161.12 1371.75 161.12"/><path class="cls-1" d="M720.05,39.34,752.75.28H714.14L691.28,39.34h-42V.36H643V2.27h-2.84V.36H595.3V2.27h2.84V7h2.36V9.87h2.36v1.91h8v2.85h2.36V17h2.36v2.85h-2.83V17.48h-5.2V15.11h-5.2V12.25H595.3V9.87h2.36V7H595.3V2.27h-2.36V5.12H590.1V2.27h2.84V.36h-4.73V5.12h-2.83V7H583V9.87h2.37v2.38h4.72v2.38h5.2v5.23h-2.36v2.38h-5.2v2.38h-2.36V17.48h4.72V14.63H583V12.25h-2.83v2.38h-2.36V17h2.83v2.85h-2.36v2.38h-2.84V19.39h2.37V17h-5.2V12.25h-2.37V9.87h-1.89v2.38H566v1.9h4.73V17h-2.37v2.38h4.73v5.23h2.36V32.7h-4.72v1.9h4.72V37h5.2v3.33h-8V37.46h-2.37V35.08h-1.89v4.28h2.37v2.85h4.72v2.85h-5.2V42.69h-2.83V39.83h-1.89V37.46h-2.36v2.37H558v2.38h-4.73V47h2.36V44.59h4.73V42.21h2.84v2.38h5.19V47h4.73v2.85H575V47h2.84V44.59H583v2.85h-4.72v2.85h-2.37V52.2h2.37v2.37H583V57h2.37V54.57h2.83V57h2.36V59.8h-2.36v3.33H584.9v-1h-2.36V65h2.84v2.37H583v2.38h2.84v2.38h2.36V75H584.9V72.64h-6.61v1.91h2.36V77.4h7.56v2.85h-2.36v2.38h-3.31V80.25h-2.36v2.38h-1.89V85h-2.84v5.23h-2.83V87.86h-2.37V85h-1.89v2.85H566v2.38h2.36v2.38h2.37V95h-2.84v2.38h2.84v2.85h-2.84v2.38h-2.36V105H560.8v2.85h2.37v4.53h2.36v-2.15h2.83v-2.38h-.47V105h2.84v2.38h2.36v2.37h4.73v-2.37h2.83V102.6h-2.36v2.85h-2.37V102.6h1.9V99.75h2.36V95.47h-2.36V87.39h2.83v.47H583V84.53h5.2V86H584.9v1.9h2.84v-.47h2.36V84.53h2.37V80.25H590.1v-5.7h2.37V72.17h2.36V69.32h3.78v3.32h-2.84V75h-2.83v4.76h2.83v4.75h.48v3.33h1.89V84.53h4.72v3.33h-4.72v2.38h-2.37v1.9h4.73v3.33h-5.67V92.62h-1.89v2.85h-2.37v2.38h-3.3V94.52h2.83V92.14h2.37V87.39H590.1v2.85h-1.89v2.38H584.9V87.86H583v4.76h-2.36v5.23H583V95h2.84v2.86H583v1.9h7.56v2.85h-2.36V105h2.36v2.85h-2.83v-2.38h-2.36v2.38h-4.73v2.38h-2.36v2.15h29.3v-2.63H610v-2.37h2.84v2.85h-2.37v2.15h9.45v-2.63h3.31v2.63h26.08V63.75h42l26.5,48.83h33.15L720.05,63.75ZM590.57,9.87h-2.83V7h2.83Zm-4.72,102.24H583v-2.38h2.84Zm4.72,0h-2.83v-2.38h2.83Zm47.26-90.35h3.31v3.33h-3.31ZM632.16,6.55h3.31V9.87h-3.31Zm0,30.91h3.31v3.32h-3.31Zm0,27.58h3.31v3.32h-3.31Zm-1.89-2.38V59.33h3.31v3.33Zm-.47-13.32h3.31v3.33H629.8Zm0,30.44h3.31v2.85H629.8Zm5.67,12.36v3.33h-3.31V92.14ZM602.39,65V59.33h3.31V65Zm.47,4.28v3.32H600V69.32ZM600,57.9V54.57h8.5V57.9Zm8-18.54v5.23h2.36V47h2.84v3.32h-2.84v2.38h-2.83V45.06h-2.84V40.31H600V37h5.67v2.38Zm12.29,10V52.2h-2.84V50.29h-2.83V47H618v2.37Zm2.83,10.94h-5.67V57h5.67Zm2.37,9.51v2.85h-2.84V69.79Zm-3.31-19.5V47h3.31v3.32Zm0-10.46V34.6h-1.89V31.75h2.83V34.6h2.37v5.23Zm.94-14.26h-3.31V22.24h3.31Zm-7.56,19.49h-3.31V41.73h3.31ZM601,47v2.37h2.36v3.33H600V50.29h-2.37V47Zm6.14,24.72h3.79V75.5h-3.79ZM610,60.28V57h3.31v3.33Zm2.36,4.28H618v3.33h-2.36v2.38h-3.31Zm2.37,27.58h3.78v3.33h-3.78Zm0-20H618V75.5h-3.3Zm2.83,7.61h5.2V77.4h2.84v2.85h-2.84v2.38h-5.2Zm7.56,2.37h2.84V85h-2.84Zm0-24.72V54.57h2.84v2.86Zm0-27.11V27.47h2.84v2.85Zm.48-10.46h-2.84V17h2.84Zm-1.9-4.75h-3.3V11.78h3.3Zm-8.5-10.47H618V2.27h2.37V4.64H618V7.5h-2.83Zm-9.45,1h-3.31V2.27h3.31Zm7.56,4.76H610V7h3.31Zm1.89,4.28V11.78H618v2.85Zm0,10H618v2.85h-2.83ZM610,21.76h3.31v3.33H610Zm0,12.37h3.31V37h2.36v3.33h-3.31V37.46H610ZM608.06,27v3.33h-3.31V27Zm-5.67-4.75h3.31v2.85h-2.37v7.13h4.73v2.86h-5.67V32.7H600.5v2.38h-2.84V32.22H600V25.09h2.36ZM597.66,17h2.84v5.7h-2.84Zm-2.83,10h3.31v3.33h-3.31Zm-6.62.48h3.31V30.8h-3.31Zm-.47,7.61V32.22h5.2v5.24h-2.37v2.85h-2.83V37.93H584.9V35.08Zm-7.09,0h-2.83V29.85h2.36V27.47h-2.36V25.09h2.36V22.24H583v2.85h-2.36v2.38h4.73v4.75h-2.84V29.85h-1.89Zm1.89,7.61V39.83h3.31v2.86Zm7.56,10V49.82h-1.89v2.85h-5.67V49.34h2.36V47h2.84V44.59h2.36V42.21h2.37V39.36h2.83V37h2.84v2.38H595.3v3.33h-2.36v1.9h2.83v2.85h-2.83V52.2h5.67v2.85h-2.84v2.38h-3.3V52.67Zm.95,17.6h-3.31V66.94h3.31Zm1.89-7.61V65H590.1V62.18h2.37V59.33h3.3v3.33Zm1.89,5.23V64.56H601v3.33Zm2.83,12.36V77.4h4.73V74.55h3.31v3.32h-2.37v2.38ZM600,96.9h3.3v3.32H600Zm2.83,13.31H600.5v1.9h-2.84v-1.9h-2.83v-8.08h3.31v5.23h4.72Zm5.2-2.38h-2.84v-2.38h-2.83V102.6h3.31V105h2.36Zm-.47-10V95.47h-2.84V92.14h3.31v2.38h2.84v3.33Zm5.67,7.6H610v-3.32h3.31Zm0-15.21H610V87.86h-2.36V85.48h-2.84V79.3h3.31V85h2.36v2.38h2.84Zm0-10H610V76.92h3.31Zm4.72,20v5.23h-3.3v-5.7h2.83V97.37h2.84v2.85Zm5.2,8.09h-3.31V104.5h3.31Zm0-18.07h-5.67V87.39h5.67Zm1.89-.48h2.84v2.86h-2.84Zm2.37,10h2.83v2.85h-2.83Zm5.67,10.94H629.8v-3.33h3.31Zm4.72-2.86H635V104.5h2.83Zm.47-7.13H635V97.37h3.3Zm0-70.38H635V27h3.3ZM640.19,75H643v2.85h-2.84Zm5.2,27.58h-3.3V99.75h3.3Zm0-47.55h-3.3V52.2h3.3Zm0-39.94h-3.3V11.78h3.3Z"/><polygon class="cls-1" points="560.33 87.86 557.97 87.86 557.97 85.01 550.88 85.01 550.88 87.39 553.24 87.39 553.24 89.76 557.97 89.76 557.97 92.62 560.33 92.62 560.33 87.86"/><rect class="cls-1" x="555.6" y="92.62" width="2.36" height="2.38"/><rect class="cls-1" x="548.52" y="94.99" width="1.89" height="2.38"/><rect class="cls-1" x="545.68" y="87.39" width="2.36" height="2.38"/><polygon class="cls-1" points="535.76 97.85 535.76 99.75 542.85 99.75 542.85 95.47 540.01 95.47 540.01 94.99 538.12 94.99 538.12 97.85 535.76 97.85"/><rect class="cls-1" x="557.97" y="99.75" width="2.36" height="5.23"/><polygon class="cls-1" points="552.77 94.99 552.77 92.62 552.77 89.76 548.52 89.76 548.52 92.62 550.88 92.62 550.88 94.99 552.77 94.99"/><rect class="cls-1" x="538.12" y="102.6" width="2.36" height="2.38"/><polygon class="cls-1" points="566 92.62 560.33 92.62 560.33 94.99 557.97 94.99 557.97 97.37 560.8 97.37 560.8 99.75 562.69 99.75 562.69 94.99 564.11 94.99 564.11 97.85 566 97.85 566 94.99 567.89 94.99 567.89 92.62 566 92.62"/><rect class="cls-1" x="562.69" y="100.22" width="2.84" height="2.38"/><polygon class="cls-1" points="553.24 97.85 550.88 97.85 550.88 100.22 548.04 100.22 548.04 102.6 550.88 102.6 550.88 107.36 553.24 107.36 555.6 107.36 555.6 109.73 560.33 109.73 560.33 107.83 557.97 107.83 557.97 104.98 552.77 104.98 552.77 99.75 555.6 99.75 555.6 94.99 553.24 94.99 553.24 97.85"/><rect class="cls-1" x="545.68" y="97.37" width="2.36" height="2.38"/><rect class="cls-1" x="543.32" y="92.62" width="2.36" height="2.38"/><polygon class="cls-1" points="540.48 87.39 538.12 87.39 538.12 90.24 538.12 92.62 540.48 92.62 540.48 87.39"/><rect class="cls-1" x="533.39" y="99.75" width="2.36" height="2.85"/><polygon class="cls-1" points="533.39 92.62 533.39 94.99 533.39 97.37 535.76 97.37 535.76 94.99 538.12 94.99 538.12 92.62 533.39 92.62"/><rect class="cls-1" x="530.56" y="105.45" width="2.36" height="1.9"/><rect class="cls-1" x="533.39" y="85.01" width="4.73" height="2.38"/><rect class="cls-1" x="531.03" y="87.39" width="2.36" height="2.85"/><rect class="cls-1" x="507.87" y="104.98" width="2.84" height="2.38"/><rect class="cls-1" x="541.43" y="106.41" width="2.84" height="2.38"/><rect class="cls-1" x="520.63" y="107.36" width="2.36" height="2.38"/><polygon class="cls-1" points="520.63 89.76 518.27 89.76 518.27 92.62 520.63 92.62 520.63 90.24 523 90.24 523 87.39 520.63 87.39 520.63 89.76"/><rect class="cls-1" x="518.27" y="94.99" width="2.36" height="2.38"/><rect class="cls-1" x="513.55" y="97.85" width="2.36" height="2.38"/><rect class="cls-1" x="515.91" y="102.6" width="2.36" height="2.38"/><rect class="cls-1" x="510.71" y="85.01" width="2.84" height="2.38"/><rect class="cls-1" x="525.83" y="92.62" width="2.36" height="2.38"/><rect class="cls-1" x="525.83" y="85.01" width="2.36" height="5.23"/><rect class="cls-1" x="525.83" y="105.45" width="2.36" height="1.9"/><rect class="cls-1" x="523.47" y="102.6" width="2.36" height="2.38"/><rect class="cls-1" x="543.32" y="102.6" width="4.73" height="2.38"/><polygon class="cls-1" points="536.23 105.45 535.76 105.45 535.76 107.36 538.12 107.36 538.12 104.98 536.23 104.98 536.23 105.45"/><polygon class="cls-1" points="530.56 99.75 525.83 99.75 525.83 100.22 525.83 102.6 530.56 102.6 530.56 99.75"/><rect class="cls-1" x="523.47" y="97.37" width="1.89" height="2.85"/><rect class="cls-1" x="592.94" y="85.01" width="2.36" height="4.76"/><rect class="cls-1" x="580.65" y="100.22" width="1.89" height="2.38"/><rect class="cls-1" x="583.49" y="102.6" width="1.42" height="2.38"/><rect class="cls-1" x="548.04" y="107.83" width="2.36" height="4.53"/><polygon class="cls-1" points="578.29 57.43 578.29 59.8 580.65 59.8 580.65 62.18 582.54 62.18 582.54 57.43 578.29 57.43"/><rect class="cls-1" x="580.65" y="65.04" width="1.89" height="1.9"/><polygon class="cls-1" points="558.44 67.89 550.88 67.89 550.88 69.79 560.33 69.79 560.33 65.03 558.44 65.03 558.44 67.89"/><polygon class="cls-1" points="565.06 55.05 563.16 55.05 563.16 57.43 560.8 57.43 560.8 59.8 563.16 59.8 563.16 62.66 565.06 62.66 565.06 55.05"/><rect class="cls-1" x="585.38" y="57.43" width="2.36" height="2.38"/><rect class="cls-1" x="557.97" y="60.28" width="2.36" height="2.38"/><polygon class="cls-1" points="567.89 69.79 567.89 67.41 565.06 67.41 565.06 65.03 563.16 65.03 563.16 69.79 567.89 69.79"/><rect class="cls-1" x="568.36" y="69.79" width="1.89" height="2.38"/><polygon class="cls-1" points="543.32 72.64 543.32 74.55 547.57 74.55 547.57 72.64 545.68 72.64 545.68 69.79 542.85 69.79 542.85 72.64 543.32 72.64"/><polygon class="cls-1" points="569.31 60.28 568.36 60.28 568.36 62.66 570.73 62.66 570.73 64.56 572.62 64.56 572.62 60.28 570.73 60.28 570.73 57.43 569.31 57.43 569.31 60.28"/><rect class="cls-1" x="568.36" y="65.04" width="1.42" height="1.9"/><polygon class="cls-1" points="553.24 82.15 557.5 82.15 557.5 80.25 555.6 80.25 555.6 77.88 553.24 77.88 553.24 82.15"/><polygon class="cls-1" points="562.69 87.39 562.69 85.01 565.06 85.01 565.06 80.25 563.16 80.25 563.16 82.63 557.97 82.63 557.97 84.53 561.27 84.53 561.27 87.39 562.69 87.39"/><rect class="cls-1" x="548.04" y="70.27" width="2.84" height="1.9"/><rect class="cls-1" x="560.8" y="69.79" width="1.89" height="2.38"/><rect class="cls-1" x="563.17" y="72.64" width="5.2" height="1.9"/><polygon class="cls-1" points="562.69 75.02 560.33 75.02 560.33 72.64 557.97 72.64 557.97 75.02 556.08 75.02 556.08 77.4 562.69 77.4 562.69 75.02"/><rect class="cls-1" x="553.24" y="72.64" width="2.36" height="1.9"/><polygon class="cls-1" points="550.41 77.4 552.77 77.4 552.77 75.02 548.04 75.02 548.04 79.78 550.41 79.78 550.41 77.4"/><polygon class="cls-1" points="580.18 7.02 583.01 7.02 583.01 4.64 578.29 4.64 578.29 7.5 575.45 7.5 575.45 4.64 577.82 4.64 577.82 1.79 583.01 1.79 583.01 4.64 585.38 4.64 585.38 0.36 575.45 0.36 575.45 2.27 573.09 2.27 573.09 4.64 573.09 7.02 573.09 9.4 575.92 9.4 575.92 9.88 577.82 9.88 577.82 12.25 580.18 12.25 580.18 7.02"/><rect class="cls-1" x="560.8" y="0.36" width="7.09" height="1.43"/><rect class="cls-1" x="575.92" y="12.25" width="1.89" height="2.38"/><polygon class="cls-1" points="550.88 2.27 553.24 2.27 553.24 0.36 548.04 0.36 548.04 4.64 550.88 4.64 550.88 2.27"/><rect class="cls-1" x="555.6" y="47.44" width="2.36" height="1.9"/><polygon class="cls-1" points="560.8 52.2 558.44 52.2 558.44 54.57 560.8 54.57 563.16 54.57 563.16 49.82 560.8 49.82 560.8 52.2"/><rect class="cls-1" x="540.95" y="42.69" width="1.89" height="1.9"/><polygon class="cls-1" points="553.24 52.2 553.24 57.43 557.97 57.43 557.97 55.05 555.13 55.05 555.13 52.2 553.24 52.2"/><rect class="cls-1" x="560.8" y="45.06" width="2.36" height="1.9"/><rect class="cls-1" x="563.17" y="47.44" width="1.89" height="2.38"/><rect class="cls-1" x="548.04" y="44.59" width="2.36" height="2.85"/><rect class="cls-1" x="546.15" y="42.21" width="1.89" height="2.38"/><rect class="cls-1" x="550.88" y="39.83" width="1.89" height="2.38"/><rect class="cls-1" x="546.15" y="47.44" width="1.89" height="1.9"/><polygon class="cls-1" points="540.48 87.39 543.32 87.39 543.32 85.01 545.68 85.01 545.68 82.63 548.04 82.63 548.04 79.78 542.85 79.78 542.85 85.01 540.96 85.01 540.96 82.63 538.12 82.63 538.12 85.01 540.48 85.01 540.48 87.39"/><rect class="cls-1" x="550.88" y="29.85" width="2.36" height="2.38"/><rect class="cls-1" x="546.15" y="29.85" width="1.89" height="4.76"/><rect class="cls-1" x="538.12" y="35.08" width="2.84" height="2.38"/><polygon class="cls-1" points="543.32 17.01 543.32 21.76 545.21 21.76 545.21 17.01 548.04 17.01 548.04 14.63 545.68 14.63 540.96 14.63 540.96 17.01 543.32 17.01"/><polygon class="cls-1" points="542.85 26.99 545.21 26.99 545.21 24.62 540.96 24.62 540.96 29.85 538.12 29.85 538.12 32.22 542.85 32.22 542.85 26.99"/><rect class="cls-1" x="557.97" y="34.6" width="2.36" height="2.38"/><rect class="cls-1" x="535.76" y="42.69" width="1.89" height="1.9"/><polygon class="cls-1" points="550.41 54.57 550.41 52.2 552.77 52.2 552.77 47.44 550.41 47.44 550.41 49.82 548.04 49.82 548.04 52.2 546.15 52.2 546.15 49.34 542.85 49.34 542.85 47.44 540.48 47.44 540.48 49.82 535.76 49.82 535.76 54.57 538.12 54.57 538.12 52.2 542.85 52.2 543.32 52.2 543.32 55.05 545.68 55.05 545.68 57.43 545.68 59.8 550.41 59.8 550.41 57.43 548.04 57.43 548.04 54.57 550.41 54.57"/><rect class="cls-1" x="538.12" y="45.06" width="2.36" height="1.9"/><polygon class="cls-1" points="531.03 42.21 532.92 42.21 532.92 39.36 535.28 39.36 535.28 37.45 531.03 37.45 531.03 42.21"/><polygon class="cls-1" points="558.44 27.47 557.97 27.47 557.97 29.37 560.33 29.37 560.33 26.99 558.44 26.99 558.44 27.47"/><polygon class="cls-1" points="557.97 14.63 552.77 14.63 552.77 12.25 550.88 12.25 550.88 17.48 548.52 17.48 548.52 19.39 550.88 19.39 550.88 22.24 552.77 22.24 552.77 17.01 556.08 17.01 556.08 19.39 557.97 19.39 557.97 14.63"/><polygon class="cls-1" points="565.53 29.85 568.36 29.85 568.36 32.22 570.25 32.22 570.25 29.85 573.09 29.85 573.09 27.47 570.25 27.47 570.25 24.62 568.36 24.62 568.36 27.47 565.53 27.47 565.53 29.85"/><polygon class="cls-1" points="560.8 19.86 558.44 19.86 558.44 22.24 560.33 22.24 560.33 26.99 565.06 26.99 565.06 25.09 562.69 25.09 562.69 22.24 562.69 19.39 565.06 19.39 565.06 14.15 562.69 14.15 562.69 12.25 560.8 12.25 560.8 19.86"/><rect class="cls-1" x="538.12" y="12.25" width="2.84" height="2.38"/><polygon class="cls-1" points="553.24 32.22 553.24 35.08 548.04 35.08 548.04 36.98 553.24 36.98 553.24 39.36 555.13 39.36 555.13 34.6 557.97 34.6 557.97 32.22 553.24 32.22"/><polygon class="cls-1" points="538.12 7.5 535.76 7.5 535.76 12.25 538.12 12.25 538.12 9.4 538.12 7.5"/><polygon class="cls-1" points="543.32 7.02 545.68 7.02 545.68 9.4 548.04 9.4 548.04 4.64 543.32 4.64 543.32 7.02"/><rect class="cls-1" x="548.04" y="9.4" width="2.36" height="2.38"/><rect class="cls-1" x="543.32" y="9.4" width="2.36" height="2.85"/><polygon class="cls-1" points="563.16 32.22 560.8 32.22 560.8 34.6 565.53 34.6 565.53 29.85 563.16 29.85 563.16 32.22"/><polygon class="cls-1" points="545.68 22.24 545.68 24.62 548.04 24.62 548.04 29.85 550.41 29.85 550.41 26.99 555.6 26.99 555.6 22.24 553.24 22.24 553.24 25.09 550.41 25.09 550.41 22.24 545.68 22.24"/><rect class="cls-1" x="566" y="22.24" width="1.89" height="2.38"/><polygon class="cls-1" points="538.59 67.41 538.59 72.64 540.48 72.64 540.48 69.79 542.85 69.79 542.85 67.41 540.96 67.41 540.96 64.56 538.12 64.56 538.12 67.41 538.59 67.41"/><polygon class="cls-1" points="548.04 67.41 550.41 67.41 550.41 65.03 555.13 65.03 555.13 62.66 548.04 62.66 548.04 65.03 545.68 65.03 545.68 67.41 545.68 69.79 548.04 69.79 548.04 67.41"/><rect class="cls-1" x="528.19" y="4.64" width="2.36" height="2.38"/><rect class="cls-1" x="540.95" y="75.02" width="1.89" height="4.76"/><rect class="cls-1" x="548.04" y="82.63" width="2.36" height="2.38"/><rect class="cls-1" x="535.76" y="19.86" width="2.36" height="2.38"/><polygon class="cls-1" points="530.56 79.78 528.2 79.78 528.2 82.63 531.03 82.63 531.03 79.78 533.39 79.78 533.39 77.4 530.56 77.4 530.56 79.78"/><rect class="cls-1" x="536.23" y="77.4" width="1.89" height="4.76"/><rect class="cls-1" x="520.63" y="44.59" width="2.84" height="2.38"/><rect class="cls-1" x="507.87" y="57.43" width="2.84" height="2.38"/><rect class="cls-1" x="518.27" y="49.82" width="2.36" height="2.38"/><rect class="cls-1" x="515.91" y="26.99" width="2.36" height="2.38"/><rect class="cls-1" x="511.18" y="32.22" width="2.36" height="2.38"/><rect class="cls-1" x="520.63" y="24.62" width="2.84" height="2.38"/><rect class="cls-1" x="538.12" y="55.05" width="2.36" height="2.38"/><rect class="cls-1" x="518.27" y="62.66" width="2.36" height="1.9"/><rect class="cls-1" x="528.19" y="59.8" width="2.36" height="2.38"/><polygon class="cls-1" points="538.12 57.43 535.28 57.43 535.28 55.05 532.92 55.05 532.92 59.8 538.12 59.8 538.12 57.43"/><rect class="cls-1" x="520.63" y="55.05" width="2.36" height="2.38"/><polygon class="cls-1" points="530.56 54.57 532.92 54.57 532.92 52.67 528.67 52.67 528.67 57.43 530.56 57.43 530.56 54.57"/><polygon class="cls-1" points="533.39 75.02 533.39 77.4 535.76 77.4 535.76 75.02 538.12 75.02 538.12 72.64 532.92 72.64 532.92 75.02 533.39 75.02"/><rect class="cls-1" x="523.47" y="47.44" width="1.89" height="2.38"/><rect class="cls-1" x="525.83" y="57.43" width="2.36" height="2.38"/><rect class="cls-1" x="523" y="67.41" width="2.84" height="2.38"/><rect class="cls-1" x="525.83" y="75.02" width="2.36" height="2.38"/><rect class="cls-1" x="525.83" y="69.79" width="2.36" height="2.85"/><rect class="cls-1" x="543.32" y="59.8" width="2.36" height="2.38"/><polygon class="cls-1" points="528.67 47.44 528.67 49.82 532.92 49.82 532.92 47.44 531.98 47.44 531.98 44.59 530.56 44.59 530.56 47.44 528.67 47.44"/><rect class="cls-1" x="540.95" y="62.18" width="1.89" height="2.38"/><polygon class="cls-1" points="535.28 64.56 538.12 64.56 538.12 62.18 532.92 62.18 532.92 67.41 535.28 67.41 535.28 64.56"/><rect class="cls-1" x="530.56" y="67.41" width="2.36" height="5.23"/><rect class="cls-1" x="513.07" y="4.64" width="2.84" height="2.38"/><rect class="cls-1" x="507.87" y="17.48" width="2.84" height="2.38"/><rect class="cls-1" x="518.27" y="12.73" width="2.36" height="1.9"/><rect class="cls-1" x="523.47" y="27.47" width="2.36" height="1.9"/><rect class="cls-1" x="520.63" y="9.87" width="2.84" height="1.9"/><rect class="cls-1" x="528.19" y="15.11" width="2.36" height="1.9"/><rect class="cls-1" x="530.56" y="12.25" width="2.84" height="1.9"/><rect class="cls-1" x="528.19" y="22.24" width="4.73" height="2.38"/><rect class="cls-1" x="566" y="4.64" width="1.89" height="2.38"/><rect class="cls-1" x="518.27" y="0.36" width="2.84" height="1.9"/><rect class="cls-1" x="550.88" y="7.02" width="1.89" height="2.38"/><rect class="cls-1" x="567.89" y="2.27" width="2.84" height="2.38"/><rect class="cls-1" x="525.83" y="0.36" width="2.36" height="1.9"/><rect class="cls-1" x="523" y="62.18" width="2.84" height="2.85"/><polygon class="cls-1" points="533.39 27.47 533.39 29.37 535.28 29.37 535.28 27.47 538.12 27.47 538.12 25.09 533.39 25.09 533.39 27.47"/><rect class="cls-1" x="518.27" y="82.63" width="2.36" height="2.38"/><rect class="cls-1" x="515.91" y="77.4" width="2.36" height="2.38"/><rect class="cls-1" x="513.55" y="69.79" width="2.36" height="2.38"/><rect class="cls-1" x="515.91" y="54.57" width="2.36" height="2.85"/><rect class="cls-1" x="515.91" y="67.41" width="2.36" height="2.38"/><rect class="cls-1" x="520.63" y="79.78" width="2.36" height="2.85"/><rect class="cls-1" x="523.47" y="17.48" width="1.89" height="1.9"/><rect class="cls-1" x="523.47" y="4.64" width="2.36" height="2.38"/><rect class="cls-1" x="515.91" y="19.86" width="2.36" height="2.38"/><rect class="cls-1" x="538.12" y="2.74" width="5.2" height="1.43"/><rect class="cls-1" x="533.39" y="2.74" width="1.89" height="1.43"/><rect class="cls-1" x="538.12" y="22.24" width="2.36" height="2.38"/><rect class="cls-1" x="531.03" y="0.36" width="1.89" height="1.9"/><rect class="cls-1" x="518.27" y="32.22" width="2.36" height="2.38"/><rect class="cls-1" x="528.67" y="42.21" width="1.89" height="2.38"/><rect class="cls-1" x="530.56" y="32.22" width="2.36" height="2.38"/><rect class="cls-1" x="528.19" y="29.37" width="2.36" height="2.85"/><polygon class="cls-1" points="565.53 9.88 565.53 7.02 560.33 7.02 560.33 4.64 560.33 2.27 557.97 2.27 557.97 4.64 553.24 4.64 553.24 7.02 555.6 7.02 555.6 9.4 557.97 9.4 557.97 12.25 560.33 12.25 560.33 9.4 562.69 9.4 562.69 12.25 566 12.25 566 9.88 565.53 9.88"/><polygon class="cls-1" points="542.85 37.45 543.32 37.45 543.32 42.21 545.21 42.21 545.21 39.36 548.04 39.36 548.04 37.45 546.15 37.45 546.15 34.6 542.85 34.6 542.85 37.45"/><rect class="cls-1" x="535.28" y="4.17" width="2.84" height="1.43"/><polygon class="cls-1" points="520.63 17.48 518.27 17.48 518.27 19.39 518.27 19.86 520.63 19.86 520.63 17.48"/><rect class="cls-1" x="528.19" y="72.64" width="2.36" height="2.38"/><rect class="cls-1" x="542.84" y="44.59" width="3.31" height="2.85"/><rect class="cls-1" x="560.33" y="62.66" width="2.84" height="2.38"/><rect class="cls-1" x="569.78" y="66.94" width="0.95" height="0.95"/><polygon class="cls-1" points="567.89 49.82 567.89 52.2 566 52.2 566 54.57 570.73 54.57 570.73 57.43 573.09 57.43 573.09 59.8 575.45 59.8 575.45 56.95 577.82 56.95 577.82 55.05 574.98 55.05 574.98 52.67 570.25 52.67 570.25 49.82 567.89 49.82"/><polygon class="cls-1" points="576.87 65.03 576.87 64.56 580.18 64.56 580.18 62.18 577.34 62.18 577.34 59.8 575.45 59.8 575.45 65.03 576.87 65.03"/><polygon class="cls-1" points="575.45 67.41 575.45 65.03 573.09 65.03 573.09 67.89 570.73 67.89 570.73 69.31 573.09 69.31 573.09 72.17 577.82 72.17 577.82 69.79 580.18 69.79 580.18 67.41 578.29 67.41 578.29 65.03 576.87 65.03 576.87 67.41 575.45 67.41"/><rect class="cls-1" x="575.92" y="74.55" width="2.36" height="0.95"/><polygon class="cls-1" points="575.45 82.15 575.45 79.78 580.18 79.78 580.18 77.4 575.92 77.4 575.92 75.5 568.36 75.5 568.36 77.4 566 77.4 566 79.78 570.25 79.78 570.25 77.4 573.09 77.4 573.09 80.25 570.73 80.25 570.73 85.01 572.62 85.01 573.09 85.01 575.45 85.01 575.45 82.63 575.45 82.15"/><rect class="cls-1" x="590.57" y="17.48" width="1.89" height="2.38"/><rect class="cls-1" x="588.89" y="34.48" width="1.58" height="1.76"/><rect class="cls-1" x="590.57" y="45.06" width="1.89" height="1.9"/><path class="cls-1" d="M695.86,172.05v9.37H685.53v14h27.55v23.41h-61v-58h90.21V130.28H645.89v1.9h-2.83v-1.9h-44.9v1.9H601v4.76h2.36v2.85h2.36v1.9h8v2.86h2.36v2.37h2.36v2.86h-2.83V147.4h-5.2V145h-5.2v-2.85h-7.09v-2.38h2.36v-2.85h-2.36v-4.76H595.8V135H593v-2.86h2.84v-1.9h-4.73V135h-2.83v1.9h-2.37v2.85h2.37v2.38H593v2.38h5.2v5.23H595.8v2.37h-5.2v2.38h-2.36V147.4H593v-2.85h-7.09v-2.38H583v2.38h-2.36v2.37h2.83v2.86h-2.36v2.37h-2.84V149.3h2.37v-2.38h-5.2v-4.75h-2.37v-2.38h-1.89v2.38h-2.36v1.9h4.73v2.85h-2.37v2.38H576v5.23h2.36v8.09h-4.72v1.9h4.72v2.38h5.2v3.32h-8v-2.85h-2.37V165h-1.89v4.28h2.37v2.86h4.72V175h-5.2V172.6h-2.83v-2.85h-1.89v-2.38H566v2.38h-5.2v2.38H556.1v4.75h2.37V174.5h4.72v-2.37H566v2.37h5.19v2.38H576v2.85h1.89v-2.85h2.84V174.5h5.19v2.86h-4.72v2.85h-2.36v1.9h2.36v2.38h4.72v2.38h2.37v-2.38h2.83v2.38h2.37v2.85h-2.37v3.33h-3.31v-1H585.4V195h2.84v2.38h-2.37v2.38h2.84v2.37h2.36v2.86h-3.31v-2.38h-6.61v1.9h2.36v2.85h7.56v2.86h-2.36v2.38H585.4v-2.38H583v2.38h-1.89v2.37h-2.84v5.23h-2.83v-2.37h-2.37v-2.86h-1.89v2.86h-2.36v2.37h2.36v2.38h2.37v2.38h-2.84v2.38h2.84v2.85h-2.84v2.38h-2.36v2.38h-4.73v2.85H566v4.53h2.36v-2.15h2.83v-2.38h-.47V234.9h2.84v2.37H576v2.38h4.73v-2.38h2.83v-4.75h-2.36v2.85h-2.36v-2.85h1.89v-2.86H583v-4.28h-2.36V217.3h2.83v.48h2.36v-3.33h5.2v1.42h-3.31v1.91h2.84v-.48H593v-2.85h2.37v-4.28H593v-5.71h2.37v-2.38h2.36v-2.85h3.78v3.33h-2.84v2.38H595.8v4.75h2.83v4.76h.48v3.33H601v-3.33h4.72v3.33H601v2.37h-2.37v1.91h4.73v3.32h-5.67v-2.85H595.8v2.85h-2.36v2.38h-3.31v-3.33H593v-2.37h2.37V217.3H593v2.85h-1.89v2.38h-3.31v-4.75h-1.89v4.75h-2.36v5.23h2.36v-2.85h2.84v2.85h-2.84v1.9h7.57v2.86h-2.37v2.38h2.37v2.85H590.6v-2.38h-2.36v2.38h-4.73v2.38h-2.36v2.15h29.3v-2.63h2.36v-2.38h2.84v2.86h-2.37v2.15h9.46v-2.63H626v2.63H742.48V172.37ZM593.44,139.79H590.6v-2.85h2.84ZM588.71,242h-2.84v-2.38h2.84Zm4.73,0H590.6v-2.38h2.84Zm47.25-90.35H644V155h-3.31ZM635,136.46h3.31v3.33H635Zm0,30.91h3.31v3.33H635ZM635,195h3.31v3.33H635Zm-1.89-2.38v-3.33h3.31v3.33Zm-.47-13.31H636v3.33h-3.31Zm0,30.43H636v2.86h-3.31Zm5.67,12.37v3.32H635v-3.32ZM605.25,195v-5.71h3.31V195Zm.47,4.28v3.33h-2.83v-3.33Zm-2.83-11.41v-3.33h8.5v3.33Zm8-18.55v5.23h2.36v2.38h2.84v3.33h-2.84v2.38h-2.83V175h-2.84v-4.76h-4.72V166.9h5.67v2.37Zm12.29,10v2.85h-2.84v-1.9h-2.83v-3.33h3.3v2.38ZM626,190.2h-5.67v-3.33H626Zm2.37,9.51v2.85h-2.84v-2.85Zm-3.31-19.5v-3.33h3.31v3.33Zm0-10.46v-5.23h-1.89v-2.86H626v2.86h2.37v5.23Zm.94-14.27h-3.3v-3.33H626ZM618.48,175h-3.31v-3.33h3.31Zm-14.65,1.9v2.38h2.36v3.33h-3.3v-2.38h-2.37v-3.33ZM610,201.61h3.78v3.8H610Zm2.83-11.41v-3.33h3.31v3.33Zm2.36,4.28h5.67v3.32h-2.36v2.38h-3.31Zm2.37,27.58h3.78v3.32h-3.78Zm0-20h3.3v3.33h-3.3Zm2.83,7.61h5.2v-2.38h2.84v2.86h-2.84v2.38h-5.2Zm7.56,2.38h2.84v2.85h-2.84Zm0-24.73v-2.85h2.84v2.85Zm0-27.1v-2.86h2.84v2.86Zm.48-10.46h-2.84v-2.86h2.84ZM626.52,145h-3.31v-3.33h3.31ZM618,134.56h2.83v-2.38h2.37v2.38h-2.37v2.85H618Zm-9.45.95h-3.31v-3.33h3.31Zm7.56,4.76h-3.31v-3.33h3.31Zm1.89,4.28v-2.86h2.83v2.86Zm0,10h2.83v2.85H618Zm-5.2-2.85h3.31V155h-3.31Zm0,12.36h3.31v2.86h2.36v3.32h-3.31v-2.85h-2.36Zm-1.89-7.13v3.33h-3.31v-3.33Zm-5.67-4.76h3.31V155h-2.37v7.13h4.73V165h-5.67v-2.37h-1.89V165h-2.84v-2.85h2.37V155h2.36Zm-4.73-5.23h2.84v5.71h-2.84Zm-2.83,10H601v3.33h-3.31Zm-6.62.47h3.31v3.33h-3.31ZM590.6,165v-2.85h5.2v5.23h-2.36v2.85H590.6v-2.37h-2.84V165Zm-7.09,0h-2.83v-5.23H583v-2.38h-2.36V155H583v-2.86h2.83V155h-2.36v2.37h4.73v4.76H585.4v-2.38h-1.89Zm1.89,7.61v-2.85h3.31v2.85Zm7.56,10v-2.86h-1.89v2.86H585.4v-3.33h2.36v-2.38h2.84V174.5H593v-2.37h2.37v-2.86h2.83V166.9H601v2.37h-2.84v3.33H595.8v1.9h2.83v2.86H595.8v4.75h5.67V185h-2.84v2.37h-3.3v-4.75Zm.95,17.59H590.6v-3.33h3.31Zm1.89-7.61V195H593V192.1h2.37v-2.86h3.3v3.33Zm1.89,5.23v-3.32h6.14v3.32Zm2.83,12.37v-2.86h4.73v-2.85h3.31v3.33h-2.37v2.38Zm2.37,16.64h3.3v3.33h-3.3Zm2.83,13.32h-2.36V242h-2.84v-1.9h-2.83V232H601v5.23h4.72Zm5.2-2.38h-2.83v-2.38h-2.84v-2.85h3.31v2.38h2.36Zm-.47-10v-2.38h-2.84v-3.32h3.31v2.37h2.84v3.33Zm5.67,7.61h-3.31V232h3.31Zm0-15.22h-3.31v-2.37h-2.36V215.4h-2.84v-6.18h3.31v5.7h2.36v2.38h2.84Zm0-10h-3.31v-3.33h3.31Zm4.72,20v5.23h-3.3v-5.71h2.83v-2.37h2.84v2.85Zm5.2,8.08h-3.3v-3.8H626Zm0-18.07h-5.67V217.3H626Zm1.89-.47h2.84v2.85h-2.84Zm2.37,10h2.83v2.86H630.3ZM636,240.6h-3.31v-3.33H636Zm4.72-2.85h-2.83v-3.33h2.83Zm.48-7.13h-3.31v-3.33h3.31Zm0-70.38h-3.31v-3.33h3.31Zm1.89,44.7h2.83v2.85h-2.83Zm5.19,27.58H645v-2.86h3.3Zm0-47.55H645v-2.86h3.3Zm0-39.95H645v-3.33h3.3Z"/><polygon class="cls-1" points="563.19 217.78 560.83 217.78 560.83 214.92 553.74 214.92 553.74 217.3 556.1 217.3 556.1 219.68 560.83 219.68 560.83 222.53 563.19 222.53 563.19 217.78"/><rect class="cls-1" x="558.47" y="222.53" width="2.36" height="2.38"/><rect class="cls-1" x="551.38" y="224.91" width="1.89" height="2.38"/><rect class="cls-1" x="548.54" y="217.3" width="2.36" height="2.38"/><polygon class="cls-1" points="538.62 227.76 538.62 229.66 545.71 229.66 545.71 225.38 542.87 225.38 542.87 224.91 540.98 224.91 540.98 227.76 538.62 227.76"/><rect class="cls-1" x="560.83" y="229.66" width="2.36" height="5.23"/><polygon class="cls-1" points="555.63 224.91 555.63 222.53 555.63 219.68 551.38 219.68 551.38 222.53 553.74 222.53 553.74 224.91 555.63 224.91"/><rect class="cls-1" x="540.98" y="232.52" width="2.36" height="2.38"/><polygon class="cls-1" points="568.86 222.53 563.19 222.53 563.19 224.91 560.83 224.91 560.83 227.29 563.66 227.29 563.66 229.66 565.55 229.66 565.55 224.91 566.97 224.91 566.97 227.76 568.86 227.76 568.86 224.91 570.75 224.91 570.75 222.53 568.86 222.53"/><rect class="cls-1" x="565.55" y="230.14" width="2.84" height="2.38"/><polygon class="cls-1" points="556.1 227.76 553.74 227.76 553.74 230.14 550.9 230.14 550.9 232.52 553.74 232.52 553.74 237.27 556.1 237.27 558.47 237.27 558.47 239.65 563.19 239.65 563.19 237.75 560.83 237.75 560.83 234.9 555.63 234.9 555.63 229.66 558.47 229.66 558.47 224.91 556.1 224.91 556.1 227.76"/><rect class="cls-1" x="548.54" y="227.29" width="2.36" height="2.38"/><rect class="cls-1" x="546.18" y="222.53" width="2.36" height="2.38"/><polygon class="cls-1" points="543.34 217.3 540.98 217.3 540.98 220.15 540.98 222.53 543.34 222.53 543.34 217.3"/><rect class="cls-1" x="536.25" y="229.66" width="2.36" height="2.85"/><polygon class="cls-1" points="536.25 222.53 536.25 224.91 536.25 227.29 538.62 227.29 538.62 224.91 540.98 224.91 540.98 222.53 536.25 222.53"/><rect class="cls-1" x="533.42" y="235.37" width="2.36" height="1.9"/><rect class="cls-1" x="536.25" y="214.92" width="4.73" height="2.38"/><rect class="cls-1" x="533.89" y="217.3" width="2.36" height="2.85"/><rect class="cls-1" x="510.74" y="234.9" width="2.84" height="2.38"/><rect class="cls-1" x="544.29" y="236.32" width="2.84" height="2.38"/><rect class="cls-1" x="523.49" y="237.27" width="2.36" height="2.38"/><polygon class="cls-1" points="523.5 219.68 521.13 219.68 521.13 222.53 523.5 222.53 523.5 220.15 525.86 220.15 525.86 217.3 523.5 217.3 523.5 219.68"/><rect class="cls-1" x="521.13" y="224.91" width="2.36" height="2.38"/><rect class="cls-1" x="516.41" y="227.76" width="2.36" height="2.38"/><rect class="cls-1" x="518.77" y="232.52" width="2.36" height="2.38"/><rect class="cls-1" x="513.57" y="214.92" width="2.84" height="2.38"/><rect class="cls-1" x="528.69" y="222.53" width="2.36" height="2.38"/><rect class="cls-1" x="528.69" y="214.92" width="2.36" height="5.23"/><rect class="cls-1" x="528.69" y="235.37" width="2.36" height="1.9"/><rect class="cls-1" x="526.33" y="232.52" width="2.36" height="2.38"/><rect class="cls-1" x="546.18" y="232.52" width="4.73" height="2.38"/><polygon class="cls-1" points="539.09 235.37 538.62 235.37 538.62 237.27 540.98 237.27 540.98 234.9 539.09 234.9 539.09 235.37"/><polygon class="cls-1" points="533.42 229.66 528.69 229.66 528.69 230.14 528.69 232.52 533.42 232.52 533.42 229.66"/><rect class="cls-1" x="526.33" y="227.29" width="1.89" height="2.85"/><rect class="cls-1" x="595.8" y="214.92" width="2.36" height="4.76"/><rect class="cls-1" x="583.51" y="230.14" width="1.89" height="2.38"/><rect class="cls-1" x="586.35" y="232.52" width="1.42" height="2.38"/><rect class="cls-1" x="550.9" y="237.75" width="2.36" height="4.53"/><polygon class="cls-1" points="581.15 187.34 581.15 189.72 583.51 189.72 583.51 192.1 585.4 192.1 585.4 187.34 581.15 187.34"/><rect class="cls-1" x="583.51" y="194.95" width="1.89" height="1.9"/><polygon class="cls-1" points="561.3 197.8 553.74 197.8 553.74 199.71 563.19 199.71 563.19 194.95 561.3 194.95 561.3 197.8"/><polygon class="cls-1" points="567.92 184.97 566.03 184.97 566.03 187.34 563.66 187.34 563.66 189.72 566.03 189.72 566.03 192.57 567.92 192.57 567.92 184.97"/><rect class="cls-1" x="588.24" y="187.34" width="2.36" height="2.38"/><rect class="cls-1" x="560.83" y="190.2" width="2.36" height="2.38"/><polygon class="cls-1" points="570.75 199.71 570.75 197.33 567.92 197.33 567.92 194.95 566.03 194.95 566.03 199.71 570.75 199.71"/><rect class="cls-1" x="571.22" y="199.71" width="1.89" height="2.38"/><polygon class="cls-1" points="546.18 202.56 546.18 204.46 550.43 204.46 550.43 202.56 548.54 202.56 548.54 199.71 545.71 199.71 545.71 202.56 546.18 202.56"/><polygon class="cls-1" points="572.17 190.2 571.23 190.2 571.23 192.57 573.59 192.57 573.59 194.48 575.48 194.48 575.48 190.2 573.59 190.2 573.59 187.34 572.17 187.34 572.17 190.2"/><rect class="cls-1" x="571.22" y="194.95" width="1.42" height="1.9"/><polygon class="cls-1" points="556.1 212.07 560.36 212.07 560.36 210.17 558.47 210.17 558.47 207.79 556.1 207.79 556.1 212.07"/><polygon class="cls-1" points="565.55 217.3 565.55 214.92 567.92 214.92 567.92 210.17 566.03 210.17 566.03 212.55 560.83 212.55 560.83 214.45 564.14 214.45 564.14 217.3 565.55 217.3"/><rect class="cls-1" x="550.9" y="200.18" width="2.84" height="1.9"/><rect class="cls-1" x="563.66" y="199.71" width="1.89" height="2.38"/><rect class="cls-1" x="566.03" y="202.56" width="5.2" height="1.9"/><polygon class="cls-1" points="565.55 204.94 563.19 204.94 563.19 202.56 560.83 202.56 560.83 204.94 558.94 204.94 558.94 207.31 565.55 207.31 565.55 204.94"/><rect class="cls-1" x="556.1" y="202.56" width="2.36" height="1.9"/><polygon class="cls-1" points="553.27 207.31 555.63 207.31 555.63 204.94 550.9 204.94 550.9 209.69 553.27 209.69 553.27 207.31"/><polygon class="cls-1" points="583.04 136.94 585.87 136.94 585.87 134.56 581.15 134.56 581.15 137.41 578.31 137.41 578.31 134.56 580.68 134.56 580.68 131.71 585.87 131.71 585.87 134.56 588.24 134.56 588.24 130.28 578.31 130.28 578.31 132.18 575.95 132.18 575.95 134.56 575.95 136.94 575.95 139.31 578.79 139.31 578.79 139.79 580.68 139.79 580.68 142.17 583.04 142.17 583.04 136.94"/><rect class="cls-1" x="563.66" y="130.28" width="7.09" height="1.43"/><rect class="cls-1" x="578.79" y="142.17" width="1.89" height="2.38"/><polygon class="cls-1" points="553.74 132.18 556.1 132.18 556.1 130.28 550.9 130.28 550.9 134.56 553.74 134.56 553.74 132.18"/><rect class="cls-1" x="558.47" y="177.36" width="2.36" height="1.9"/><polygon class="cls-1" points="563.66 182.11 561.3 182.11 561.3 184.49 563.66 184.49 566.03 184.49 566.03 179.73 563.66 179.73 563.66 182.11"/><rect class="cls-1" x="543.82" y="172.6" width="1.89" height="1.9"/><polygon class="cls-1" points="556.1 182.11 556.1 187.34 560.83 187.34 560.83 184.97 557.99 184.97 557.99 182.11 556.1 182.11"/><rect class="cls-1" x="563.66" y="174.98" width="2.36" height="1.9"/><rect class="cls-1" x="566.03" y="177.36" width="1.89" height="2.38"/><rect class="cls-1" x="550.9" y="174.5" width="2.36" height="2.85"/><rect class="cls-1" x="549.01" y="172.13" width="1.89" height="2.38"/><rect class="cls-1" x="553.74" y="169.75" width="1.89" height="2.38"/><rect class="cls-1" x="549.01" y="177.36" width="1.89" height="1.9"/><polygon class="cls-1" points="543.34 217.3 546.18 217.3 546.18 214.92 548.54 214.92 548.54 212.55 550.9 212.55 550.9 209.69 545.71 209.69 545.71 214.92 543.82 214.92 543.82 212.55 540.98 212.55 540.98 214.92 543.34 214.92 543.34 217.3"/><rect class="cls-1" x="553.74" y="159.76" width="2.36" height="2.38"/><rect class="cls-1" x="549.01" y="159.76" width="1.89" height="4.76"/><rect class="cls-1" x="540.98" y="164.99" width="2.84" height="2.38"/><polygon class="cls-1" points="546.18 146.92 546.18 151.68 548.07 151.68 548.07 146.92 550.9 146.92 550.9 144.55 548.54 144.55 543.82 144.55 543.82 146.92 546.18 146.92"/><polygon class="cls-1" points="545.71 156.91 548.07 156.91 548.07 154.53 543.82 154.53 543.82 159.76 540.98 159.76 540.98 162.14 545.71 162.14 545.71 156.91"/><rect class="cls-1" x="560.83" y="164.52" width="2.36" height="2.38"/><rect class="cls-1" x="538.62" y="172.6" width="1.89" height="1.9"/><polygon class="cls-1" points="553.27 184.49 553.27 182.11 555.63 182.11 555.63 177.36 553.27 177.36 553.27 179.73 550.9 179.73 550.9 182.11 549.01 182.11 549.01 179.26 545.71 179.26 545.71 177.36 543.34 177.36 543.34 179.73 538.62 179.73 538.62 184.49 540.98 184.49 540.98 182.11 545.71 182.11 546.18 182.11 546.18 184.97 548.54 184.97 548.54 187.34 548.54 189.72 553.27 189.72 553.27 187.34 550.9 187.34 550.9 184.49 553.27 184.49"/><rect class="cls-1" x="540.98" y="174.98" width="2.36" height="1.9"/><polygon class="cls-1" points="533.89 172.13 535.78 172.13 535.78 169.27 538.14 169.27 538.14 167.37 533.89 167.37 533.89 172.13"/><polygon class="cls-1" points="561.3 157.38 560.83 157.38 560.83 159.29 563.19 159.29 563.19 156.91 561.3 156.91 561.3 157.38"/><polygon class="cls-1" points="560.83 144.55 555.63 144.55 555.63 142.17 553.74 142.17 553.74 147.4 551.38 147.4 551.38 149.3 553.74 149.3 553.74 152.15 555.63 152.15 555.63 146.92 558.94 146.92 558.94 149.3 560.83 149.3 560.83 144.55"/><polygon class="cls-1" points="568.39 159.76 571.23 159.76 571.23 162.14 573.12 162.14 573.12 159.76 575.95 159.76 575.95 157.38 573.12 157.38 573.12 154.53 571.23 154.53 571.23 157.38 568.39 157.38 568.39 159.76"/><polygon class="cls-1" points="563.66 149.78 561.3 149.78 561.3 152.15 563.19 152.15 563.19 156.91 567.92 156.91 567.92 155.01 565.55 155.01 565.55 152.15 565.55 149.3 567.92 149.3 567.92 144.07 565.55 144.07 565.55 142.17 563.66 142.17 563.66 149.78"/><rect class="cls-1" x="540.98" y="142.17" width="2.84" height="2.38"/><polygon class="cls-1" points="556.1 162.14 556.1 164.99 550.9 164.99 550.9 166.9 556.1 166.9 556.1 169.27 557.99 169.27 557.99 164.52 560.83 164.52 560.83 162.14 556.1 162.14"/><polygon class="cls-1" points="540.98 137.41 538.62 137.41 538.62 142.17 540.98 142.17 540.98 139.31 540.98 137.41"/><polygon class="cls-1" points="546.18 136.94 548.54 136.94 548.54 139.31 550.9 139.31 550.9 134.56 546.18 134.56 546.18 136.94"/><rect class="cls-1" x="550.9" y="139.31" width="2.36" height="2.38"/><rect class="cls-1" x="546.18" y="139.31" width="2.36" height="2.85"/><polygon class="cls-1" points="566.03 162.14 563.66 162.14 563.66 164.52 568.39 164.52 568.39 159.76 566.03 159.76 566.03 162.14"/><polygon class="cls-1" points="548.54 152.15 548.54 154.53 550.9 154.53 550.9 159.76 553.27 159.76 553.27 156.91 558.47 156.91 558.47 152.15 556.1 152.15 556.1 155.01 553.27 155.01 553.27 152.15 548.54 152.15"/><rect class="cls-1" x="568.86" y="152.15" width="1.89" height="2.38"/><polygon class="cls-1" points="541.45 197.33 541.45 202.56 543.34 202.56 543.34 199.71 545.71 199.71 545.71 197.33 543.82 197.33 543.82 194.48 540.98 194.48 540.98 197.33 541.45 197.33"/><polygon class="cls-1" points="550.9 197.33 553.27 197.33 553.27 194.95 557.99 194.95 557.99 192.57 550.9 192.57 550.9 194.95 548.54 194.95 548.54 197.33 548.54 199.71 550.9 199.71 550.9 197.33"/><rect class="cls-1" x="531.06" y="134.56" width="2.36" height="2.38"/><rect class="cls-1" x="543.82" y="204.94" width="1.89" height="4.76"/><rect class="cls-1" x="550.9" y="212.55" width="2.36" height="2.38"/><rect class="cls-1" x="538.62" y="149.78" width="2.36" height="2.38"/><polygon class="cls-1" points="533.42 209.69 531.06 209.69 531.06 212.55 533.89 212.55 533.89 209.69 536.25 209.69 536.25 207.31 533.42 207.31 533.42 209.69"/><rect class="cls-1" x="539.09" y="207.31" width="1.89" height="4.76"/><rect class="cls-1" x="523.49" y="174.5" width="2.84" height="2.38"/><rect class="cls-1" x="510.74" y="187.34" width="2.84" height="2.38"/><rect class="cls-1" x="521.13" y="179.73" width="2.36" height="2.38"/><rect class="cls-1" x="518.77" y="156.91" width="2.36" height="2.38"/><rect class="cls-1" x="514.04" y="162.14" width="2.36" height="2.38"/><rect class="cls-1" x="523.49" y="154.53" width="2.84" height="2.38"/><rect class="cls-1" x="540.98" y="184.97" width="2.36" height="2.38"/><rect class="cls-1" x="521.13" y="192.57" width="2.36" height="1.9"/><rect class="cls-1" x="531.06" y="189.72" width="2.36" height="2.38"/><polygon class="cls-1" points="540.98 187.34 538.14 187.34 538.14 184.97 535.78 184.97 535.78 189.72 540.98 189.72 540.98 187.34"/><rect class="cls-1" x="523.49" y="184.97" width="2.36" height="2.38"/><polygon class="cls-1" points="533.42 184.49 535.78 184.49 535.78 182.59 531.53 182.59 531.53 187.34 533.42 187.34 533.42 184.49"/><polygon class="cls-1" points="536.25 204.94 536.25 207.31 538.62 207.31 538.62 204.94 540.98 204.94 540.98 202.56 535.78 202.56 535.78 204.94 536.25 204.94"/><rect class="cls-1" x="526.33" y="177.36" width="1.89" height="2.38"/><rect class="cls-1" x="528.69" y="187.34" width="2.36" height="2.38"/><rect class="cls-1" x="525.86" y="197.33" width="2.84" height="2.38"/><rect class="cls-1" x="528.69" y="204.94" width="2.36" height="2.38"/><rect class="cls-1" x="528.69" y="199.71" width="2.36" height="2.85"/><rect class="cls-1" x="546.18" y="189.72" width="2.36" height="2.38"/><polygon class="cls-1" points="531.53 177.36 531.53 179.73 535.78 179.73 535.78 177.36 534.84 177.36 534.84 174.5 533.42 174.5 533.42 177.36 531.53 177.36"/><rect class="cls-1" x="543.82" y="192.1" width="1.89" height="2.38"/><polygon class="cls-1" points="538.14 194.48 540.98 194.48 540.98 192.1 535.78 192.1 535.78 197.33 538.14 197.33 538.14 194.48"/><rect class="cls-1" x="533.42" y="197.33" width="2.36" height="5.23"/><rect class="cls-1" x="515.93" y="134.56" width="2.84" height="2.38"/><rect class="cls-1" x="510.74" y="147.4" width="2.84" height="2.38"/><rect class="cls-1" x="521.13" y="142.64" width="2.36" height="1.9"/><rect class="cls-1" x="526.33" y="157.38" width="2.36" height="1.9"/><rect class="cls-1" x="523.49" y="139.79" width="2.84" height="1.9"/><rect class="cls-1" x="531.06" y="145.02" width="2.36" height="1.9"/><rect class="cls-1" x="533.42" y="142.17" width="2.84" height="1.9"/><rect class="cls-1" x="531.06" y="152.15" width="4.73" height="2.38"/><rect class="cls-1" x="568.86" y="134.56" width="1.89" height="2.38"/><rect class="cls-1" x="521.13" y="130.28" width="2.84" height="1.9"/><rect class="cls-1" x="553.74" y="136.94" width="1.89" height="2.38"/><rect class="cls-1" x="570.75" y="132.18" width="2.84" height="2.38"/><rect class="cls-1" x="528.69" y="130.28" width="2.36" height="1.9"/><rect class="cls-1" x="525.86" y="192.1" width="2.84" height="2.85"/><polygon class="cls-1" points="536.25 157.38 536.25 159.29 538.14 159.29 538.14 157.38 540.98 157.38 540.98 155.01 536.25 155.01 536.25 157.38"/><rect class="cls-1" x="521.13" y="212.55" width="2.36" height="2.38"/><rect class="cls-1" x="518.77" y="207.31" width="2.36" height="2.38"/><rect class="cls-1" x="516.41" y="199.71" width="2.36" height="2.38"/><rect class="cls-1" x="518.77" y="184.49" width="2.36" height="2.85"/><rect class="cls-1" x="518.77" y="197.33" width="2.36" height="2.38"/><rect class="cls-1" x="523.49" y="209.69" width="2.36" height="2.85"/><rect class="cls-1" x="526.33" y="147.4" width="1.89" height="1.9"/><rect class="cls-1" x="526.33" y="134.56" width="2.36" height="2.38"/><rect class="cls-1" x="518.77" y="149.78" width="2.36" height="2.38"/><rect class="cls-1" x="540.98" y="132.66" width="5.2" height="1.43"/><rect class="cls-1" x="536.25" y="132.66" width="1.89" height="1.43"/><rect class="cls-1" x="540.98" y="152.15" width="2.36" height="2.38"/><rect class="cls-1" x="533.89" y="130.28" width="1.89" height="1.9"/><rect class="cls-1" x="521.13" y="162.14" width="2.36" height="2.38"/><rect class="cls-1" x="531.53" y="172.13" width="1.89" height="2.38"/><rect class="cls-1" x="533.42" y="162.14" width="2.36" height="2.38"/><rect class="cls-1" x="531.06" y="159.29" width="2.36" height="2.85"/><polygon class="cls-1" points="568.39 139.79 568.39 136.94 563.19 136.94 563.19 134.56 563.19 132.18 560.83 132.18 560.83 134.56 556.1 134.56 556.1 136.94 558.47 136.94 558.47 139.31 560.83 139.31 560.83 142.17 563.19 142.17 563.19 139.31 565.55 139.31 565.55 142.17 568.86 142.17 568.86 139.79 568.39 139.79"/><polygon class="cls-1" points="545.71 167.37 546.18 167.37 546.18 172.13 548.07 172.13 548.07 169.27 550.9 169.27 550.9 167.37 549.01 167.37 549.01 164.52 545.71 164.52 545.71 167.37"/><rect class="cls-1" x="538.14" y="134.08" width="2.84" height="1.43"/><polygon class="cls-1" points="523.5 147.4 521.13 147.4 521.13 149.3 521.13 149.78 523.5 149.78 523.5 147.4"/><rect class="cls-1" x="531.06" y="202.56" width="2.36" height="2.38"/><rect class="cls-1" x="545.71" y="174.5" width="3.31" height="2.85"/><rect class="cls-1" x="563.19" y="192.57" width="2.84" height="2.38"/><rect class="cls-1" x="572.64" y="196.85" width="0.95" height="0.95"/><polygon class="cls-1" points="570.75 179.73 570.75 182.11 568.86 182.11 568.86 184.49 573.59 184.49 573.59 187.34 575.95 187.34 575.95 189.72 578.31 189.72 578.31 186.87 580.68 186.87 580.68 184.97 577.84 184.97 577.84 182.59 573.12 182.59 573.12 179.73 570.75 179.73"/><polygon class="cls-1" points="579.73 194.95 579.73 194.48 583.04 194.48 583.04 192.1 580.2 192.1 580.2 189.72 578.31 189.72 578.31 194.95 579.73 194.95"/><polygon class="cls-1" points="578.31 197.33 578.31 194.95 575.95 194.95 575.95 197.8 573.59 197.8 573.59 199.23 575.95 199.23 575.95 202.08 580.68 202.08 580.68 199.71 583.04 199.71 583.04 197.33 581.15 197.33 581.15 194.95 579.73 194.95 579.73 197.33 578.31 197.33"/><rect class="cls-1" x="578.79" y="204.46" width="2.36" height="0.95"/><polygon class="cls-1" points="578.31 212.07 578.31 209.69 583.04 209.69 583.04 207.31 578.79 207.31 578.79 205.41 571.23 205.41 571.23 207.31 568.86 207.31 568.86 209.69 573.12 209.69 573.12 207.31 575.95 207.31 575.95 210.17 573.59 210.17 573.59 214.92 575.48 214.92 575.95 214.92 578.31 214.92 578.31 212.55 578.31 212.07"/><rect class="cls-1" x="593.44" y="147.4" width="1.89" height="2.38"/><rect class="cls-1" x="591.75" y="164.4" width="1.58" height="1.76"/><rect class="cls-1" x="593.44" y="174.98" width="1.89" height="1.9"/><polygon class="cls-1" points="0 18.79 446.04 18.79 446.04 223.51 0 223.51 0 242.31 464.83 242.31 464.83 0 0 0 0 18.79"/><path class="cls-1" d="M463.83,1V241.31H1V224.52H447V17.79H1V1H463.83m1-1H0V18.79H446V223.52H0v18.79H464.83V0Z"/><polygon class="cls-1" points="380.57 100.49 395.43 100.49 419.26 69.54 419.26 38.59 233.56 38.59 233.56 204.95 419.26 204.95 419.26 114.03 388.31 114.03 361.23 143.05 361.23 154.66 388.31 154.66 388.31 166.26 268.38 166.26 268.38 73.41 380.57 73.41 380.57 100.49"/><path class="cls-1" d="M418.26,39.59V69.2L394.94,99.49H381.57V72.41H267.38v94.85H389.31v-13.6H362.23V143.44L388.74,115h29.52V204H234.56V39.59h183.7m1-1H233.56V205h185.7V114H388.31l-27.08,29v11.61h27.08v11.6H268.38V73.41H380.57v27.08h14.86l23.83-30.95V38.59Z"/><path class="cls-1" d="M183.47,204.07c-.23-6.15-2.5-60.49-13.87-64.25l-.08,0h-105v64.28H28.74L28.27,38.85H66.39L66.33,108l.48,0c.39,0,39.36,1.78,71.86,1.78,27.57,0,42.18-1.2,44.66-3.66,6.59-6.54.92-60.53.21-67h31.89c.82,5.9,9.41,70.45-5,89.71a12.35,12.35,0,0,1-8.19,5.24l-.74.1.37.65c.15.24,14.37,25.18,16.83,69.28Z"/><path class="cls-1" d="M65.89,39.35l-.06,68.14v1l1,0c.39,0,39.38,1.78,71.89,1.78,36.91,0,43.37-2.17,45-3.81,6.6-6.55,1.49-57,.41-66.87H215c1.09,8,9,70.2-5,88.91a11.81,11.81,0,0,1-7.85,5l-1.47.21.74,1.29c.14.24,14.19,24.89,16.73,68.53H184c-.15-3.59-.75-16.61-2.39-29.82-2.66-21.41-6.52-32.66-11.8-34.41l-.16-.05H64v64.28H29.23L28.78,39.35H65.89m1-1H27.77l.47,166.22H65V140.29H169.44c11.61,3.84,13.54,64.28,13.54,64.28h36.27c-2.42-45.09-16.92-70-16.92-70,27.08-3.83,13.54-95.94,13.54-95.94H183s6.77,60.45,0,67.16c-2.73,2.71-22.12,3.52-44.31,3.52-32.86,0-71.84-1.78-71.84-1.78l.06-69.14Z"/><polygon class="cls-1" points="0 18.79 446.04 18.79 446.04 223.51 0 223.51 0 242.31 464.83 242.31 464.83 0 0 0 0 18.79"/><polygon class="cls-1" points="380.57 100.49 395.43 100.49 419.26 69.54 419.26 38.59 233.56 38.59 233.56 204.95 419.26 204.95 419.26 114.03 388.31 114.03 361.23 143.05 361.23 154.66 388.31 154.66 388.31 166.26 268.38 166.26 268.38 73.41 380.57 73.41 380.57 100.49"/><path class="cls-1" d="M65.89,39.35l-.06,68.14v1l1,0c.39,0,39.38,1.78,71.89,1.78,36.91,0,43.37-2.17,45-3.81,6.6-6.55,1.49-57,.41-66.87H215c1.09,8,9,70.2-5,88.91a11.81,11.81,0,0,1-7.85,5l-1.47.21.74,1.29c.14.24,14.19,24.89,16.73,68.53H184c-.15-3.59-.75-16.61-2.39-29.82-2.66-21.41-6.52-32.66-11.8-34.41l-.16-.05H64v64.28H29.23L28.78,39.35H65.89m1-1H27.77l.47,166.22H65V140.29H169.44c11.61,3.84,13.54,64.28,13.54,64.28h36.27c-2.42-45.09-16.92-70-16.92-70,27.08-3.83,13.54-95.94,13.54-95.94H183s6.77,60.45,0,67.16c-2.73,2.71-22.12,3.52-44.31,3.52-32.86,0-71.84-1.78-71.84-1.78l.06-69.14Z"/></g></g></svg>